<mxfile host="app.diagrams.net" modified="2021-03-09T02:42:41.903Z" agent="5.0 (Windows NT 10.0; Win64; x64) AppleWebKit/537.36 (KHTML, like Gecko) Chrome/88.0.4324.190 Safari/537.36" etag="tLef7ARREI8nl398KLDY" version="14.4.3" type="github">
  <diagram id="x2a_kQlyoNN8RExBubtk" name="Page-1">
    <mxGraphModel dx="2031" dy="1089" grid="1" gridSize="10" guides="1" tooltips="1" connect="1" arrows="1" fold="1" page="1" pageScale="1" pageWidth="850" pageHeight="1100" math="0" shadow="0">
      <root>
        <mxCell id="0" />
        <mxCell id="1" parent="0" />
        <mxCell id="APC3j6ZGFJVOv_pqT0E7-1" value="&lt;font style=&quot;font-size: 21px&quot;&gt;autobahn to ips test&lt;/font&gt;" style="text;html=1;strokeColor=none;fillColor=none;align=center;verticalAlign=middle;whiteSpace=wrap;rounded=0;" vertex="1" parent="1">
          <mxGeometry x="1510" y="400" width="200" height="20" as="geometry" />
        </mxCell>
        <mxCell id="APC3j6ZGFJVOv_pqT0E7-6" value="" style="group" vertex="1" connectable="0" parent="1">
          <mxGeometry x="330" y="1640" width="1070" height="1000" as="geometry" />
        </mxCell>
        <mxCell id="APC3j6ZGFJVOv_pqT0E7-7" value="" style="group" vertex="1" connectable="0" parent="APC3j6ZGFJVOv_pqT0E7-6">
          <mxGeometry width="1070" height="1000" as="geometry" />
        </mxCell>
        <mxCell id="APC3j6ZGFJVOv_pqT0E7-8" value="dma" style="text;html=1;strokeColor=none;fillColor=none;align=center;verticalAlign=middle;whiteSpace=wrap;rounded=0;" vertex="1" parent="APC3j6ZGFJVOv_pqT0E7-7">
          <mxGeometry width="146.1980198019802" height="184.31372549019605" as="geometry" />
        </mxCell>
        <mxCell id="APC3j6ZGFJVOv_pqT0E7-9" value="" style="group" vertex="1" connectable="0" parent="APC3j6ZGFJVOv_pqT0E7-7">
          <mxGeometry width="1070" height="1000" as="geometry" />
        </mxCell>
        <mxCell id="APC3j6ZGFJVOv_pqT0E7-10" value="" style="rounded=0;whiteSpace=wrap;html=1;" vertex="1" parent="APC3j6ZGFJVOv_pqT0E7-9">
          <mxGeometry x="-21.18811881188119" width="1091.1881188118812" height="900" as="geometry" />
        </mxCell>
        <mxCell id="APC3j6ZGFJVOv_pqT0E7-11" style="edgeStyle=orthogonalEdgeStyle;rounded=0;orthogonalLoop=1;jettySize=auto;html=1;exitX=0.5;exitY=0;exitDx=0;exitDy=0;entryX=0.5;entryY=1;entryDx=0;entryDy=0;" edge="1" parent="APC3j6ZGFJVOv_pqT0E7-9" source="APC3j6ZGFJVOv_pqT0E7-12" target="APC3j6ZGFJVOv_pqT0E7-32">
          <mxGeometry relative="1" as="geometry" />
        </mxCell>
        <mxCell id="APC3j6ZGFJVOv_pqT0E7-12" value="mem_rd_array()&lt;br&gt;addr: &#39;h2000&lt;br&gt;size: &#39;h100" style="rounded=1;whiteSpace=wrap;html=1;fillColor=#d5e8d4;strokeColor=#82b366;" vertex="1" parent="APC3j6ZGFJVOv_pqT0E7-9">
          <mxGeometry x="800.0001924807865" y="550.0005882352941" width="118.5635269680814" height="68.62745098039215" as="geometry" />
        </mxCell>
        <mxCell id="APC3j6ZGFJVOv_pqT0E7-13" value="" style="group" vertex="1" connectable="0" parent="APC3j6ZGFJVOv_pqT0E7-9">
          <mxGeometry x="105.94059405940595" y="225.49019607843135" width="553.4866336633664" height="630" as="geometry" />
        </mxCell>
        <mxCell id="APC3j6ZGFJVOv_pqT0E7-14" value="" style="rounded=0;whiteSpace=wrap;html=1;" vertex="1" parent="APC3j6ZGFJVOv_pqT0E7-13">
          <mxGeometry x="51.09514851485149" width="502.3914851485149" height="630" as="geometry" />
        </mxCell>
        <mxCell id="APC3j6ZGFJVOv_pqT0E7-15" value="autobahn" style="text;html=1;strokeColor=none;fillColor=none;align=center;verticalAlign=middle;whiteSpace=wrap;rounded=0;" vertex="1" parent="APC3j6ZGFJVOv_pqT0E7-13">
          <mxGeometry x="63.86384234577306" y="8.782139721560265" width="34.06071591774562" height="16.80672268907563" as="geometry" />
        </mxCell>
        <mxCell id="APC3j6ZGFJVOv_pqT0E7-16" value="" style="group" vertex="1" connectable="0" parent="APC3j6ZGFJVOv_pqT0E7-13">
          <mxGeometry x="190.66984386900234" y="39.21340775116022" width="204.36429550647372" height="117.64705882352942" as="geometry" />
        </mxCell>
        <mxCell id="APC3j6ZGFJVOv_pqT0E7-17" value="" style="group" vertex="1" connectable="0" parent="APC3j6ZGFJVOv_pqT0E7-16">
          <mxGeometry x="833.39" y="-198.23999999999998" width="204.36429550647372" height="117.64705882352942" as="geometry" />
        </mxCell>
        <mxCell id="APC3j6ZGFJVOv_pqT0E7-18" value="" style="rounded=0;whiteSpace=wrap;html=1;fillColor=#f8cecc;strokeColor=#b85450;" vertex="1" parent="APC3j6ZGFJVOv_pqT0E7-17">
          <mxGeometry width="204.36429550647372" height="117.64705882352942" as="geometry" />
        </mxCell>
        <mxCell id="APC3j6ZGFJVOv_pqT0E7-19" value="m_ips_mem_autobahn_drv" style="text;html=1;strokeColor=none;fillColor=none;align=center;verticalAlign=middle;whiteSpace=wrap;rounded=0;" vertex="1" parent="APC3j6ZGFJVOv_pqT0E7-17">
          <mxGeometry x="63.591026794987194" width="37.15714463754068" height="18.099547511312217" as="geometry" />
        </mxCell>
        <mxCell id="APC3j6ZGFJVOv_pqT0E7-20" value="memory_storage[]" style="rounded=0;whiteSpace=wrap;html=1;fillColor=#d5e8d4;strokeColor=#82b366;" vertex="1" parent="APC3j6ZGFJVOv_pqT0E7-17">
          <mxGeometry x="42.57589489718204" y="40.33613445378152" width="102.18214775323686" height="50.420168067226896" as="geometry" />
        </mxCell>
        <mxCell id="APC3j6ZGFJVOv_pqT0E7-21" value="" style="group" vertex="1" connectable="0" parent="APC3j6ZGFJVOv_pqT0E7-13">
          <mxGeometry x="105.51683168316832" y="235.29411764705884" width="374.6695049504951" height="340" as="geometry" />
        </mxCell>
        <mxCell id="APC3j6ZGFJVOv_pqT0E7-22" value="" style="rounded=0;whiteSpace=wrap;html=1;" vertex="1" parent="APC3j6ZGFJVOv_pqT0E7-21">
          <mxGeometry x="10.127920792079209" width="364.5415841584159" height="340" as="geometry" />
        </mxCell>
        <mxCell id="APC3j6ZGFJVOv_pqT0E7-23" value="vir_mem&lt;br&gt;base: &#39;h1000&lt;br&gt;size: &#39;h5000" style="text;html=1;strokeColor=none;fillColor=none;align=center;verticalAlign=middle;whiteSpace=wrap;rounded=0;" vertex="1" parent="APC3j6ZGFJVOv_pqT0E7-21">
          <mxGeometry y="13.725490196078429" width="121.51443403799844" height="27.450980392156858" as="geometry" />
        </mxCell>
        <mxCell id="APC3j6ZGFJVOv_pqT0E7-24" value="" style="group" vertex="1" connectable="0" parent="APC3j6ZGFJVOv_pqT0E7-21">
          <mxGeometry x="86.07272411024886" y="81.3953488372093" width="202.5240567299973" height="86.18331053351575" as="geometry" />
        </mxCell>
        <mxCell id="APC3j6ZGFJVOv_pqT0E7-25" value="" style="rounded=0;whiteSpace=wrap;html=1;" vertex="1" parent="APC3j6ZGFJVOv_pqT0E7-24">
          <mxGeometry width="202.5240567299973" height="86.18331053351575" as="geometry" />
        </mxCell>
        <mxCell id="APC3j6ZGFJVOv_pqT0E7-26" value="m_mem_sequencer" style="text;html=1;strokeColor=none;fillColor=none;align=center;verticalAlign=middle;whiteSpace=wrap;rounded=0;" vertex="1" parent="APC3j6ZGFJVOv_pqT0E7-24">
          <mxGeometry x="40.504811345999464" width="40.504811345999464" height="19.151846785225718" as="geometry" />
        </mxCell>
        <mxCell id="APC3j6ZGFJVOv_pqT0E7-27" style="edgeStyle=orthogonalEdgeStyle;rounded=0;orthogonalLoop=1;jettySize=auto;html=1;exitX=0.5;exitY=0;exitDx=0;exitDy=0;" edge="1" parent="APC3j6ZGFJVOv_pqT0E7-21" source="APC3j6ZGFJVOv_pqT0E7-28" target="APC3j6ZGFJVOv_pqT0E7-25">
          <mxGeometry relative="1" as="geometry" />
        </mxCell>
        <mxCell id="APC3j6ZGFJVOv_pqT0E7-28" value="mem_wr()&lt;br&gt;addr: &#39;h2000&lt;br&gt;data:&#39;h0-&#39;h100&lt;br&gt;" style="rounded=1;whiteSpace=wrap;html=1;absoluteArcSize=1;arcSize=14;strokeWidth=2;fillColor=#d5e8d4;strokeColor=#82b366;" vertex="1" parent="APC3j6ZGFJVOv_pqT0E7-21">
          <mxGeometry x="144.52419857469528" y="219.21149507140393" width="85.61198188118813" height="45.817482133040144" as="geometry" />
        </mxCell>
        <mxCell id="APC3j6ZGFJVOv_pqT0E7-29" value="" style="shape=flexArrow;endArrow=classic;html=1;entryX=0.5;entryY=1;entryDx=0;entryDy=0;exitX=0.5;exitY=0;exitDx=0;exitDy=0;" edge="1" parent="APC3j6ZGFJVOv_pqT0E7-13" source="APC3j6ZGFJVOv_pqT0E7-25" target="APC3j6ZGFJVOv_pqT0E7-18">
          <mxGeometry width="50" height="50" relative="1" as="geometry">
            <mxPoint x="233.06930693069307" y="225.49019607843138" as="sourcePoint" />
            <mxPoint x="286.03960396039605" y="176.47058823529414" as="targetPoint" />
            <Array as="points">
              <mxPoint x="293.05940594059405" y="114.50980392156862" />
              <mxPoint x="1126.059405940594" y="104.50980392156862" />
            </Array>
          </mxGeometry>
        </mxCell>
        <mxCell id="APC3j6ZGFJVOv_pqT0E7-30" style="edgeStyle=orthogonalEdgeStyle;rounded=0;orthogonalLoop=1;jettySize=auto;html=1;exitX=0;exitY=0.5;exitDx=0;exitDy=0;entryX=1;entryY=0.5;entryDx=0;entryDy=0;" edge="1" parent="APC3j6ZGFJVOv_pqT0E7-9" source="APC3j6ZGFJVOv_pqT0E7-12" target="APC3j6ZGFJVOv_pqT0E7-25">
          <mxGeometry relative="1" as="geometry" />
        </mxCell>
        <mxCell id="APC3j6ZGFJVOv_pqT0E7-31" style="edgeStyle=orthogonalEdgeStyle;rounded=0;orthogonalLoop=1;jettySize=auto;html=1;exitX=0.5;exitY=0;exitDx=0;exitDy=0;entryX=0.5;entryY=1;entryDx=0;entryDy=0;" edge="1" parent="APC3j6ZGFJVOv_pqT0E7-9" source="APC3j6ZGFJVOv_pqT0E7-32" target="APC3j6ZGFJVOv_pqT0E7-36">
          <mxGeometry relative="1" as="geometry" />
        </mxCell>
        <mxCell id="APC3j6ZGFJVOv_pqT0E7-32" value="return&lt;br&gt;rd_data[]&lt;br&gt;size: &#39;h100" style="rounded=1;whiteSpace=wrap;html=1;fillColor=#d5e8d4;strokeColor=#82b366;" vertex="1" parent="APC3j6ZGFJVOv_pqT0E7-9">
          <mxGeometry x="800" y="379.83" width="120" height="60" as="geometry" />
        </mxCell>
        <mxCell id="APC3j6ZGFJVOv_pqT0E7-33" value="" style="group" vertex="1" connectable="0" parent="APC3j6ZGFJVOv_pqT0E7-9">
          <mxGeometry x="426.83931746102286" y="49.01533433886369" width="261.84781001177043" height="330.8195072900955" as="geometry" />
        </mxCell>
        <mxCell id="APC3j6ZGFJVOv_pqT0E7-34" value="" style="group" vertex="1" connectable="0" parent="APC3j6ZGFJVOv_pqT0E7-33">
          <mxGeometry width="261.84781001177043" height="330.8195072900955" as="geometry" />
        </mxCell>
        <mxCell id="APC3j6ZGFJVOv_pqT0E7-35" value="" style="group" vertex="1" connectable="0" parent="APC3j6ZGFJVOv_pqT0E7-9">
          <mxGeometry x="669.9965382600258" y="49.01533433886368" width="158.86851485148517" height="152.5392156862745" as="geometry" />
        </mxCell>
        <mxCell id="APC3j6ZGFJVOv_pqT0E7-36" value="" style="rounded=0;whiteSpace=wrap;html=1;" vertex="1" parent="APC3j6ZGFJVOv_pqT0E7-35">
          <mxGeometry width="158.86851485148517" height="152.5392156862745" as="geometry" />
        </mxCell>
        <mxCell id="APC3j6ZGFJVOv_pqT0E7-37" value="ips_wr_array()&lt;br&gt;addr: &#39;h100" style="rounded=1;whiteSpace=wrap;html=1;fillColor=#d5e8d4;strokeColor=#82b366;" vertex="1" parent="APC3j6ZGFJVOv_pqT0E7-35">
          <mxGeometry x="21.18811881188119" y="55.431372549019606" width="96.75554455445545" height="54.39215686274509" as="geometry" />
        </mxCell>
        <mxCell id="APC3j6ZGFJVOv_pqT0E7-38" value="gp_sqr" style="text;html=1;strokeColor=none;fillColor=none;align=center;verticalAlign=middle;whiteSpace=wrap;rounded=0;" vertex="1" parent="APC3j6ZGFJVOv_pqT0E7-35">
          <mxGeometry x="50.87192168681663" y="6.1013767209011265" width="32.737870601519795" height="31.67420814479637" as="geometry" />
        </mxCell>
        <mxCell id="APC3j6ZGFJVOv_pqT0E7-43" value="dma" style="text;html=1;strokeColor=none;fillColor=none;align=center;verticalAlign=middle;whiteSpace=wrap;rounded=0;" vertex="1" parent="APC3j6ZGFJVOv_pqT0E7-6">
          <mxGeometry y="13.165266106442575" width="121.83168316831683" height="131.65266106442573" as="geometry" />
        </mxCell>
        <mxCell id="APC3j6ZGFJVOv_pqT0E7-44" value="" style="group" vertex="1" connectable="0" parent="1">
          <mxGeometry x="700" y="1110" width="1040" height="440" as="geometry" />
        </mxCell>
        <mxCell id="APC3j6ZGFJVOv_pqT0E7-45" value="" style="rounded=0;whiteSpace=wrap;html=1;" vertex="1" parent="APC3j6ZGFJVOv_pqT0E7-44">
          <mxGeometry x="-374.4" y="-240" width="1414.4" height="680" as="geometry" />
        </mxCell>
        <mxCell id="APC3j6ZGFJVOv_pqT0E7-46" value="ips&amp;nbsp;" style="text;html=1;strokeColor=none;fillColor=none;align=center;verticalAlign=middle;whiteSpace=wrap;rounded=0;" vertex="1" parent="APC3j6ZGFJVOv_pqT0E7-44">
          <mxGeometry x="-374.4" y="-240" width="67.2" height="25.142857142857142" as="geometry" />
        </mxCell>
        <mxCell id="APC3j6ZGFJVOv_pqT0E7-47" value="" style="group" vertex="1" connectable="0" parent="APC3j6ZGFJVOv_pqT0E7-44">
          <mxGeometry x="190" y="92.71000000000001" width="345.6" height="254.57" as="geometry" />
        </mxCell>
        <mxCell id="APC3j6ZGFJVOv_pqT0E7-48" value="" style="rounded=0;whiteSpace=wrap;html=1;" vertex="1" parent="APC3j6ZGFJVOv_pqT0E7-47">
          <mxGeometry y="-23.36504925656244" width="345.6" height="277.9350492565624" as="geometry" />
        </mxCell>
        <mxCell id="APC3j6ZGFJVOv_pqT0E7-49" value="" style="rounded=0;whiteSpace=wrap;html=1;" vertex="1" parent="APC3j6ZGFJVOv_pqT0E7-47">
          <mxGeometry x="76.8" y="123.67765891906541" width="220.8" height="65.73723229692048" as="geometry" />
        </mxCell>
        <mxCell id="APC3j6ZGFJVOv_pqT0E7-50" value="sequencer" style="text;html=1;strokeColor=none;fillColor=none;align=center;verticalAlign=middle;whiteSpace=wrap;rounded=0;" vertex="1" parent="APC3j6ZGFJVOv_pqT0E7-47">
          <mxGeometry x="97.20000000000002" y="123.67486147099113" width="38.4" height="24.24454997687749" as="geometry" />
        </mxCell>
        <mxCell id="APC3j6ZGFJVOv_pqT0E7-51" value="" style="rounded=0;whiteSpace=wrap;html=1;fillColor=#f8cecc;strokeColor=#b85450;" vertex="1" parent="APC3j6ZGFJVOv_pqT0E7-47">
          <mxGeometry x="76.8" y="15.576699504374961" width="220.8" height="70.09514776968733" as="geometry" />
        </mxCell>
        <mxCell id="APC3j6ZGFJVOv_pqT0E7-52" value="driver" style="text;html=1;strokeColor=none;fillColor=none;align=center;verticalAlign=middle;whiteSpace=wrap;rounded=0;" vertex="1" parent="APC3j6ZGFJVOv_pqT0E7-47">
          <mxGeometry x="76.8" y="15.580355260381102" width="38.4" height="24.24454997687749" as="geometry" />
        </mxCell>
        <mxCell id="APC3j6ZGFJVOv_pqT0E7-53" value="" style="shape=flexArrow;endArrow=classic;html=1;exitX=0.5;exitY=0;exitDx=0;exitDy=0;entryX=0.5;entryY=1;entryDx=0;entryDy=0;" edge="1" parent="APC3j6ZGFJVOv_pqT0E7-47" source="APC3j6ZGFJVOv_pqT0E7-49" target="APC3j6ZGFJVOv_pqT0E7-51">
          <mxGeometry width="50" height="50" relative="1" as="geometry">
            <mxPoint y="128.1739844931425" as="sourcePoint" />
            <mxPoint x="48" y="89.23223573220513" as="targetPoint" />
          </mxGeometry>
        </mxCell>
        <mxCell id="APC3j6ZGFJVOv_pqT0E7-54" value="maser agnet[0]&amp;nbsp; &amp;nbsp; &amp;nbsp;&lt;span style=&quot;font-size: 11px ; background-color: rgb(255 , 255 , 255)&quot;&gt;ips_if_0&lt;/span&gt;" style="text;html=1;strokeColor=none;fillColor=none;align=center;verticalAlign=middle;whiteSpace=wrap;rounded=0;" vertex="1" parent="APC3j6ZGFJVOv_pqT0E7-47">
          <mxGeometry x="-4.05" y="-38.9" width="154.05" height="54.48" as="geometry" />
        </mxCell>
        <mxCell id="APC3j6ZGFJVOv_pqT0E7-55" value="" style="group" vertex="1" connectable="0" parent="APC3j6ZGFJVOv_pqT0E7-44">
          <mxGeometry x="570" y="92.71000000000004" width="345.6" height="254.57" as="geometry" />
        </mxCell>
        <mxCell id="APC3j6ZGFJVOv_pqT0E7-56" value="" style="rounded=0;whiteSpace=wrap;html=1;" vertex="1" parent="APC3j6ZGFJVOv_pqT0E7-55">
          <mxGeometry y="-23.36504925656244" width="345.6" height="277.9350492565624" as="geometry" />
        </mxCell>
        <mxCell id="APC3j6ZGFJVOv_pqT0E7-57" value="" style="rounded=0;whiteSpace=wrap;html=1;" vertex="1" parent="APC3j6ZGFJVOv_pqT0E7-55">
          <mxGeometry x="76.8" y="123.67765891906541" width="220.8" height="65.73723229692048" as="geometry" />
        </mxCell>
        <mxCell id="APC3j6ZGFJVOv_pqT0E7-58" value="sequencer" style="text;html=1;strokeColor=none;fillColor=none;align=center;verticalAlign=middle;whiteSpace=wrap;rounded=0;" vertex="1" parent="APC3j6ZGFJVOv_pqT0E7-55">
          <mxGeometry x="97.20000000000002" y="123.67486147099113" width="38.4" height="24.24454997687749" as="geometry" />
        </mxCell>
        <mxCell id="APC3j6ZGFJVOv_pqT0E7-59" value="" style="rounded=0;whiteSpace=wrap;html=1;fillColor=#f8cecc;strokeColor=#b85450;" vertex="1" parent="APC3j6ZGFJVOv_pqT0E7-55">
          <mxGeometry x="76.8" y="15.576699504374961" width="220.8" height="70.09514776968733" as="geometry" />
        </mxCell>
        <mxCell id="APC3j6ZGFJVOv_pqT0E7-60" value="driver" style="text;html=1;strokeColor=none;fillColor=none;align=center;verticalAlign=middle;whiteSpace=wrap;rounded=0;" vertex="1" parent="APC3j6ZGFJVOv_pqT0E7-55">
          <mxGeometry x="76.8" y="15.580355260381102" width="38.4" height="24.24454997687749" as="geometry" />
        </mxCell>
        <mxCell id="APC3j6ZGFJVOv_pqT0E7-61" value="" style="shape=flexArrow;endArrow=classic;html=1;exitX=0.5;exitY=0;exitDx=0;exitDy=0;entryX=0.5;entryY=1;entryDx=0;entryDy=0;" edge="1" parent="APC3j6ZGFJVOv_pqT0E7-55" source="APC3j6ZGFJVOv_pqT0E7-57" target="APC3j6ZGFJVOv_pqT0E7-59">
          <mxGeometry width="50" height="50" relative="1" as="geometry">
            <mxPoint y="128.1739844931425" as="sourcePoint" />
            <mxPoint x="48" y="89.23223573220513" as="targetPoint" />
          </mxGeometry>
        </mxCell>
        <mxCell id="APC3j6ZGFJVOv_pqT0E7-62" value="" style="endArrow=classic;html=1;exitX=0.5;exitY=0;exitDx=0;exitDy=0;entryX=0.5;entryY=1;entryDx=0;entryDy=0;" edge="1" parent="1" source="APC3j6ZGFJVOv_pqT0E7-36" target="APC3j6ZGFJVOv_pqT0E7-49">
          <mxGeometry width="50" height="50" relative="1" as="geometry">
            <mxPoint x="710" y="1600" as="sourcePoint" />
            <mxPoint x="760" y="1550" as="targetPoint" />
          </mxGeometry>
        </mxCell>
        <mxCell id="APC3j6ZGFJVOv_pqT0E7-63" value="" style="group" vertex="1" connectable="0" parent="1">
          <mxGeometry x="1900" y="860" width="602" height="685.43" as="geometry" />
        </mxCell>
        <mxCell id="APC3j6ZGFJVOv_pqT0E7-64" value="" style="group" vertex="1" connectable="0" parent="APC3j6ZGFJVOv_pqT0E7-63">
          <mxGeometry width="602" height="685.43" as="geometry" />
        </mxCell>
        <mxCell id="APC3j6ZGFJVOv_pqT0E7-65" value="" style="rounded=0;whiteSpace=wrap;html=1;" vertex="1" parent="APC3j6ZGFJVOv_pqT0E7-64">
          <mxGeometry width="602" height="685.43" as="geometry" />
        </mxCell>
        <mxCell id="APC3j6ZGFJVOv_pqT0E7-66" value="virtual sequencer" style="text;html=1;strokeColor=none;fillColor=none;align=center;verticalAlign=middle;whiteSpace=wrap;rounded=0;" vertex="1" parent="APC3j6ZGFJVOv_pqT0E7-64">
          <mxGeometry width="187.35714285714286" height="48.95928571428571" as="geometry" />
        </mxCell>
        <mxCell id="APC3j6ZGFJVOv_pqT0E7-67" style="edgeStyle=orthogonalEdgeStyle;rounded=0;orthogonalLoop=1;jettySize=auto;html=1;exitX=0;exitY=0.5;exitDx=0;exitDy=0;entryX=1;entryY=0.5;entryDx=0;entryDy=0;" edge="1" parent="APC3j6ZGFJVOv_pqT0E7-64" source="APC3j6ZGFJVOv_pqT0E7-68" target="APC3j6ZGFJVOv_pqT0E7-72">
          <mxGeometry relative="1" as="geometry" />
        </mxCell>
        <mxCell id="APC3j6ZGFJVOv_pqT0E7-68" value="ips_read_sequence&lt;br&gt;addr: &#39;h100&lt;br&gt;size:&#39;h100" style="rounded=1;whiteSpace=wrap;html=1;fillColor=#d5e8d4;strokeColor=#82b366;" vertex="1" parent="APC3j6ZGFJVOv_pqT0E7-64">
          <mxGeometry x="329.9978217821781" y="112.49640138888896" width="127.12871287128714" height="114.23833333333333" as="geometry" />
        </mxCell>
        <mxCell id="APC3j6ZGFJVOv_pqT0E7-69" style="edgeStyle=orthogonalEdgeStyle;rounded=0;orthogonalLoop=1;jettySize=auto;html=1;exitX=0;exitY=0.5;exitDx=0;exitDy=0;entryX=1;entryY=0.5;entryDx=0;entryDy=0;" edge="1" parent="APC3j6ZGFJVOv_pqT0E7-64" source="APC3j6ZGFJVOv_pqT0E7-70" target="APC3j6ZGFJVOv_pqT0E7-75">
          <mxGeometry relative="1" as="geometry" />
        </mxCell>
        <mxCell id="APC3j6ZGFJVOv_pqT0E7-70" value="start_ipd_req-sig&lt;br&gt;addr: &#39;h40&lt;br&gt;ips_wdata[15:12] == &#39;h1" style="rounded=1;whiteSpace=wrap;html=1;fillColor=#d5e8d4;strokeColor=#82b366;" vertex="1" parent="APC3j6ZGFJVOv_pqT0E7-64">
          <mxGeometry x="317.13" y="449.30583333333334" width="140" height="114.23833333333333" as="geometry" />
        </mxCell>
        <mxCell id="APC3j6ZGFJVOv_pqT0E7-71" value="" style="group" vertex="1" connectable="0" parent="APC3j6ZGFJVOv_pqT0E7-64">
          <mxGeometry x="76.00428571428574" y="96.17847960317465" width="184.28571428571428" height="146.87785714285718" as="geometry" />
        </mxCell>
        <mxCell id="APC3j6ZGFJVOv_pqT0E7-72" value="" style="rounded=0;whiteSpace=wrap;html=1;" vertex="1" parent="APC3j6ZGFJVOv_pqT0E7-71">
          <mxGeometry width="184.2857142857143" height="146.87785714285715" as="geometry" />
        </mxCell>
        <mxCell id="APC3j6ZGFJVOv_pqT0E7-73" value="mem_gp_seqr" style="text;html=1;strokeColor=none;fillColor=none;align=center;verticalAlign=middle;whiteSpace=wrap;rounded=0;" vertex="1" parent="APC3j6ZGFJVOv_pqT0E7-71">
          <mxGeometry x="49.14285714285714" width="61.42857142857143" height="48.95928571428571" as="geometry" />
        </mxCell>
        <mxCell id="APC3j6ZGFJVOv_pqT0E7-74" value="" style="group" vertex="1" connectable="0" parent="APC3j6ZGFJVOv_pqT0E7-64">
          <mxGeometry x="60.00428571428573" y="432.9879115476191" width="184.28571428571428" height="146.87785714285718" as="geometry" />
        </mxCell>
        <mxCell id="APC3j6ZGFJVOv_pqT0E7-75" value="" style="rounded=0;whiteSpace=wrap;html=1;" vertex="1" parent="APC3j6ZGFJVOv_pqT0E7-74">
          <mxGeometry width="184.2857142857143" height="146.87785714285715" as="geometry" />
        </mxCell>
        <mxCell id="APC3j6ZGFJVOv_pqT0E7-76" value="ips_sequencer" style="text;html=1;strokeColor=none;fillColor=none;align=center;verticalAlign=middle;whiteSpace=wrap;rounded=0;" vertex="1" parent="APC3j6ZGFJVOv_pqT0E7-74">
          <mxGeometry x="49.14285714285714" width="61.42857142857143" height="48.95928571428571" as="geometry" />
        </mxCell>
        <mxCell id="APC3j6ZGFJVOv_pqT0E7-77" value="在ips_rd_array()中会去读两个ips_mem" style="text;html=1;strokeColor=none;fillColor=none;align=center;verticalAlign=middle;whiteSpace=wrap;rounded=0;" vertex="1" parent="1">
          <mxGeometry x="250" y="1590" width="240" height="20" as="geometry" />
        </mxCell>
        <mxCell id="APC3j6ZGFJVOv_pqT0E7-78" style="edgeStyle=orthogonalEdgeStyle;rounded=0;orthogonalLoop=1;jettySize=auto;html=1;exitX=0;exitY=0.5;exitDx=0;exitDy=0;entryX=1;entryY=0.5;entryDx=0;entryDy=0;" edge="1" parent="1" source="APC3j6ZGFJVOv_pqT0E7-75" target="APC3j6ZGFJVOv_pqT0E7-57">
          <mxGeometry relative="1" as="geometry">
            <Array as="points">
              <mxPoint x="1960" y="1359" />
            </Array>
          </mxGeometry>
        </mxCell>
        <mxCell id="APC3j6ZGFJVOv_pqT0E7-79" value="" style="rounded=0;whiteSpace=wrap;html=1;" vertex="1" parent="1">
          <mxGeometry x="812.2" y="360" width="530" height="280" as="geometry" />
        </mxCell>
        <mxCell id="APC3j6ZGFJVOv_pqT0E7-80" value="dut&lt;br&gt;" style="text;html=1;strokeColor=none;fillColor=none;align=center;verticalAlign=middle;whiteSpace=wrap;rounded=0;" vertex="1" parent="1">
          <mxGeometry x="845" y="360" width="40" height="20" as="geometry" />
        </mxCell>
        <mxCell id="APC3j6ZGFJVOv_pqT0E7-81" value="" style="group" vertex="1" connectable="0" parent="1">
          <mxGeometry x="860" y="550.001282051282" width="230.39999999999998" height="59.23076923076923" as="geometry" />
        </mxCell>
        <mxCell id="APC3j6ZGFJVOv_pqT0E7-82" value="" style="group" vertex="1" connectable="0" parent="APC3j6ZGFJVOv_pqT0E7-81">
          <mxGeometry x="103.38" y="-70" width="230.39999999999995" height="59.23076923076923" as="geometry" />
        </mxCell>
        <mxCell id="APC3j6ZGFJVOv_pqT0E7-83" value="" style="rounded=0;whiteSpace=wrap;html=1;fillColor=#f8cecc;strokeColor=#b85450;" vertex="1" parent="APC3j6ZGFJVOv_pqT0E7-82">
          <mxGeometry width="230.39999999999995" height="59.23076923076923" as="geometry" />
        </mxCell>
        <mxCell id="APC3j6ZGFJVOv_pqT0E7-84" value="ips_mem_driver" style="text;html=1;strokeColor=none;fillColor=none;align=center;verticalAlign=middle;whiteSpace=wrap;rounded=0;" vertex="1" parent="APC3j6ZGFJVOv_pqT0E7-82">
          <mxGeometry x="31.418181818181814" width="41.89090909090908" height="9.112426035502958" as="geometry" />
        </mxCell>
        <mxCell id="APC3j6ZGFJVOv_pqT0E7-85" value="memory_storage[]" style="rounded=0;whiteSpace=wrap;html=1;fillColor=#d5e8d4;strokeColor=#82b366;" vertex="1" parent="APC3j6ZGFJVOv_pqT0E7-82">
          <mxGeometry x="47.99999999999999" y="20.30769230769231" width="115.19999999999999" height="25.384615384615387" as="geometry" />
        </mxCell>
        <mxCell id="APC3j6ZGFJVOv_pqT0E7-86" style="edgeStyle=orthogonalEdgeStyle;rounded=0;orthogonalLoop=1;jettySize=auto;html=1;exitX=0.5;exitY=0;exitDx=0;exitDy=0;" edge="1" parent="1" source="APC3j6ZGFJVOv_pqT0E7-51" target="APC3j6ZGFJVOv_pqT0E7-79">
          <mxGeometry relative="1" as="geometry" />
        </mxCell>
        <mxCell id="APC3j6ZGFJVOv_pqT0E7-87" value="ips_if_0" style="edgeLabel;html=1;align=center;verticalAlign=middle;resizable=0;points=[];" vertex="1" connectable="0" parent="APC3j6ZGFJVOv_pqT0E7-86">
          <mxGeometry x="0.5815" y="-5" relative="1" as="geometry">
            <mxPoint x="-5.18" as="offset" />
          </mxGeometry>
        </mxCell>
        <mxCell id="APC3j6ZGFJVOv_pqT0E7-88" style="edgeStyle=orthogonalEdgeStyle;rounded=0;orthogonalLoop=1;jettySize=auto;html=1;exitX=0.5;exitY=1;exitDx=0;exitDy=0;" edge="1" parent="1" source="APC3j6ZGFJVOv_pqT0E7-79" target="APC3j6ZGFJVOv_pqT0E7-83">
          <mxGeometry relative="1" as="geometry" />
        </mxCell>
        <mxCell id="APC3j6ZGFJVOv_pqT0E7-89" value="ips_mem_if" style="edgeLabel;html=1;align=center;verticalAlign=middle;resizable=0;points=[];" vertex="1" connectable="0" parent="APC3j6ZGFJVOv_pqT0E7-88">
          <mxGeometry x="0.3964" y="2" relative="1" as="geometry">
            <mxPoint y="-1" as="offset" />
          </mxGeometry>
        </mxCell>
        <mxCell id="APC3j6ZGFJVOv_pqT0E7-90" value="maser agnet[0]&amp;nbsp; &amp;nbsp;&lt;span style=&quot;font-size: 11px ; background-color: rgb(255 , 255 , 255)&quot;&gt;ips_if_1&lt;/span&gt;" style="text;html=1;strokeColor=none;fillColor=none;align=center;verticalAlign=middle;whiteSpace=wrap;rounded=0;" vertex="1" parent="1">
          <mxGeometry x="1273.2" y="1182.71" width="216.8" height="20" as="geometry" />
        </mxCell>
        <mxCell id="APC3j6ZGFJVOv_pqT0E7-91" value="" style="shape=flexArrow;endArrow=classic;html=1;entryX=1;entryY=0.5;entryDx=0;entryDy=0;exitX=0.5;exitY=0;exitDx=0;exitDy=0;" edge="1" parent="1" source="APC3j6ZGFJVOv_pqT0E7-73" target="APC3j6ZGFJVOv_pqT0E7-83">
          <mxGeometry width="50" height="50" relative="1" as="geometry">
            <mxPoint x="1500" y="610" as="sourcePoint" />
            <mxPoint x="1550" y="560" as="targetPoint" />
            <Array as="points">
              <mxPoint x="2050" y="510" />
            </Array>
          </mxGeometry>
        </mxCell>
      </root>
    </mxGraphModel>
  </diagram>
</mxfile>
